<?xml version="1.0" encoding="iso-8859-1"?>
<!-- Uploaded to: SVG Repo, www.svgrepo.com, Generator: SVG Repo Mixer Tools -->
<svg fill="#000000" version="1.1" id="Layer_1" xmlns="http://www.w3.org/2000/svg" xmlns:xlink="http://www.w3.org/1999/xlink"
	 viewBox="0 0 496 496" xml:space="preserve">
<g>
	<g>
		<g>
			<path d="M496,320V176h-35.832c-3.136-9.192-6.896-18.264-11.264-27.08l25.376-25.368L372.456,21.728L347.08,47.104
				c-8.84-4.376-17.904-8.144-27.08-11.272V0H176v35.832c-9.176,3.128-18.24,6.896-27.08,11.272l-25.376-25.376L21.728,123.552
				l25.376,25.368c-4.368,8.816-8.136,17.888-11.272,27.08H0v144h35.832c3.136,9.192,6.896,18.264,11.264,27.08L21.72,372.456
				L123.544,474.28l25.376-25.376c8.816,4.368,17.88,8.136,27.08,11.264V496h144v-35.832c9.192-3.136,18.264-6.896,27.08-11.264
				l25.376,25.376L474.28,372.456l-25.376-25.376c4.368-8.816,8.136-17.88,11.264-27.08H496z M451.648,372.456l-79.192,79.192
				l-22.352-22.352l-5.216,2.76c-11.36,5.992-23.216,10.928-35.248,14.656l-5.64,1.744V480H192v-31.544l-5.632-1.744
				c-12.032-3.728-23.888-8.664-35.248-14.656l-5.216-2.76l-22.352,22.352L44.36,372.456l22.352-22.352l-2.768-5.224
				c-5.992-11.36-10.928-23.216-14.656-35.248L47.544,304H16V192h31.544l1.744-5.632c3.728-12.032,8.664-23.896,14.656-35.248
				l2.76-5.224l-22.352-22.344l79.192-79.2l22.352,22.344l5.216-2.752C162.504,57.936,174.36,53,186.36,49.28l5.64-1.744V16h112
				v31.536l5.632,1.744c12,3.72,23.856,8.656,35.248,14.664l5.216,2.752l22.352-22.344l79.192,79.2l-22.352,22.344l2.76,5.224
				c5.992,11.352,10.928,23.208,14.656,35.248l1.752,5.632H480v112h-31.544l-1.744,5.632c-3.728,12.032-8.664,23.888-14.656,35.248
				l-2.76,5.216L451.648,372.456z"/>
			<path d="M248,96c-83.816,0-152,68.184-152,152s68.184,152,152,152s152-68.184,152-152S331.816,96,248,96z M248,384
				c-74.992,0-136-61.008-136-136s61.008-136,136-136s136,61.008,136,136S322.992,384,248,384z"/>
			<path d="M248,239.168C236.04,215.944,211.872,200,184,200h-40v8c0,39.696,32.296,72,72,72h24v80h16v-80h24
				c39.704,0,72-32.304,72-72v-8h-40C284.128,200,259.96,215.944,248,239.168z M216,264c-28.168,0-51.536-20.896-55.432-48H184
				c28.168,0,51.536,20.896,55.432,48H216z M280,264h-23.432c3.888-27.104,27.264-48,55.432-48h23.432
				C331.536,243.104,308.168,264,280,264z"/>
			<rect x="272" y="296" width="16" height="16"/>
			<rect x="304" y="296" width="16" height="16"/>
			<rect x="336" y="296" width="16" height="16"/>
			<rect x="208" y="296" width="16" height="16"/>
			<rect x="176" y="296" width="16" height="16"/>
			<rect x="144" y="296" width="16" height="16"/>
		</g>
	</g>
</g>
</svg>