<svg width="100" height="100" viewBox="0 0 100 100" xmlns="http://www.w3.org/2000/svg">
    <g stroke="black" stroke-width="4" fill="none">
        <!-- Outer gear -->
        <path d="M 50 10 L 56 10 L 58 18 L 65 20 L 70 14 L 76 18 L 74 26 L 80 30 L 88 28 L 90 34 L 84 38 L 85 46 L 92 50 L 85 54 L 84 62 L 90 66 L 88 72 L 80 70 L 74 74 L 76 82 L 70 86 L 65 80 L 58 82 L 56 90 L 50 90 L 44 90 L 42 82 L 35 80 L 30 86 L 24 82 L 26 74 L 20 70 L 12 72 L 10 66 L 16 62 L 15 54 L 8 50 L 15 46 L 16 38 L 10 34 L 12 28 L 20 30 L 26 26 L 24 18 L 30 14 L 35 20 L 42 18 L 44 10 Z"/>

        <!-- Inner circle -->
        <circle cx="50" cy="50" r="18" />
    </g>

    <!-- Centered Dollar Sign -->
    <text
            x="50"
            y="50"
            text-anchor="middle"
            dominant-baseline="middle"
            font-size="22"
            font-weight="bold"
            fill="black"
            font-family="Arial"
    >
        $
    </text>
</svg>
